<svg width="85" height="58" viewBox="0 0 85 58" fill="none" xmlns="http://www.w3.org/2000/svg">
<g clip-path="url(#clip0_2002_180)">
<mask id="mask0_2002_180" style="mask-type:luminance" maskUnits="userSpaceOnUse" x="0" y="0" width="85" height="58">
<path d="M84.7756 0H0V57.0466H84.7756V0Z" fill="white"/>
</mask>
<g mask="url(#mask0_2002_180)">
<path fill-rule="evenodd" clip-rule="evenodd" d="M0 25.1381C0.8762 27.9054 2.58293 30.0733 5.11947 31.6413C7.70239 33.1633 10.6082 33.9476 13.8366 33.9476C20.9857 33.9476 27.0274 29.7965 27.0274 22.8781C27.0274 17.9433 24.2141 14.6684 18.5871 13.1003L15.1279 12.1316C12.7297 11.44 11.5305 10.8864 11.5305 9.77942C11.5305 8.67244 12.7297 8.16518 14.1595 8.16518C15.912 8.16518 17.1115 8.94931 17.757 10.5635L25.275 6.96603C24.491 4.65987 22.9689 2.90714 20.8011 1.75417C18.6335 0.601089 16.3736 0.00166285 13.9289 0.00166285C7.56409 -0.0905236 1.52215 3.92204 1.66032 10.0102C1.66032 14.9914 4.47403 18.2198 9.5935 19.6958L13.1909 20.7107C15.9584 21.4486 17.1576 22.048 17.1576 23.2933C17.1576 24.631 16.0968 25.2768 13.9289 25.2768C11.2998 25.2768 9.08624 23.7088 8.20961 21.1718L0 25.1381ZM29.8888 0.831767V33.1171H39.5743V24.0311H46.0317C52.9499 24.0311 57.4699 19.1425 57.4699 12.3623C57.4699 5.67477 52.9499 0.831767 46.0317 0.831767H29.8888ZM47.5997 12.4083C47.5997 14.0688 46.5848 15.268 44.3252 15.268H39.5743V9.59505H44.3252C46.5848 9.59505 47.5997 10.7941 47.5997 12.4083ZM57.7481 25.138C58.6242 27.9053 60.331 30.0733 62.8677 31.6413C65.4506 33.1633 68.3564 33.9473 71.5847 33.9473C78.7338 33.9473 84.7756 29.7965 84.7756 22.878C84.7756 17.9432 81.9624 14.6683 76.3351 13.1002L72.8759 12.1315C70.4778 11.4398 69.2787 10.8863 69.2787 9.77931C69.2787 8.67232 70.4778 8.1651 71.9077 8.1651C73.6601 8.1651 74.8595 8.9492 75.5052 10.5634L83.0232 6.96592C82.2392 4.65976 80.7169 2.90703 78.5493 1.75406C76.3816 0.600981 74.1217 0.00155566 71.6771 0.00155566C65.3123 -0.0906307 59.2702 3.92193 59.4085 10.0101C59.4085 14.9913 62.2223 18.2197 67.3415 19.6957L70.939 20.7106C73.7066 21.4485 74.9057 22.0479 74.9057 23.2932C74.9057 24.6308 73.8449 25.2767 71.6771 25.2767C69.048 25.2767 66.8344 23.7087 65.9577 21.1717L57.7481 25.138Z" fill="#2B2A29"/>
<path fill-rule="evenodd" clip-rule="evenodd" d="M17.0146 39.4453H25.9706V41.436H17.0146V39.4453Z" fill="#E31E24"/>
<path fill-rule="evenodd" clip-rule="evenodd" d="M17.0146 47.25H25.9706V49.2407H17.0146V47.25Z" fill="#E31E24"/>
<path fill-rule="evenodd" clip-rule="evenodd" d="M17.0146 55.0547H25.9706V57.0457H17.0146V55.0547Z" fill="#E31E24"/>
<path fill-rule="evenodd" clip-rule="evenodd" d="M26.3605 57.0459H28.9752C30.9132 52.5448 32.8045 48.0237 34.7331 43.5187C36.6603 48.0206 38.5558 52.5363 40.4661 57.0459H43.1059L35.4369 39.2695H34.029L26.3605 57.0459Z" fill="#E31E24"/>
<path d="M44.501 57.0468H46.9396V54.7841V53.09V39.4473H44.501V57.0468ZM48.4855 57.0468H55.6643V54.7841H48.4855V57.0468Z" fill="#E31E24"/>
<path d="M58.4935 43.2054V46.0835V57.0468H60.9321V43.2054H58.4935ZM58.4935 41.6595H55.9506H52.8115V39.4473H58.4935H66.5895V41.6595H62.1547H60.9321H58.4935Z" fill="#E31E24"/>
<path d="M74.4771 51.3144V57.0468H76.9158V51.3141L83.6036 39.4473H81.0236L74.4771 51.3144ZM74.9633 47.4503L70.4133 39.4473H67.7891L73.5849 49.7317L74.9631 47.4503H74.9633Z" fill="#E31E24"/>
<path d="M15.3143 57.0468L10.487 49.2778C13.0767 48.8001 14.7613 47.0403 14.7613 44.4254C14.7613 41.3076 12.3225 39.4473 9.07909 39.4473H5.99846V41.6595H9.05402C11.0402 41.6595 12.247 42.7158 12.247 44.4254C12.247 46.1348 11.0401 47.191 9.05402 47.191H5.99846V49.4033H7.84713L12.4985 57.0465L15.3143 57.0468ZM4.45297 39.4473H2.03906V57.0468H4.45297V51.9425V49.4036V47.1913V46.3076V43.6148V41.6598V39.4473Z" fill="#E31E24"/>
</g>
</g>
<defs>
<clipPath id="clip0_2002_180">
<rect width="85" height="57.2333" fill="white"/>
</clipPath>
</defs>
</svg>
