<svg width="208" height="150" viewBox="0 0 208 150" fill="none" xmlns="http://www.w3.org/2000/svg">
<g clip-path="url(#clip0_2069_283)">
<path d="M68.3388 20.6271L79.4707 17.6445L82.6993 5.5943L94.7525 8.81987L103.572 0L112.395 8.82167L124.444 5.59311L127.675 17.6427L139.722 20.8731L136.497 32.9203L145.317 41.7456L136.498 50.5649L139.723 62.6163L127.673 65.8448L124.443 77.8957L112.396 74.6665L103.572 83.4912L102.899 82.8182L94.7477 74.6671L82.7005 77.8957L79.4731 65.8448L67.4205 62.6169L67.6665 61.6991L70.649 50.569L61.8262 41.7462L70.6508 32.9215L67.4211 20.8725L68.3394 20.6265L68.3388 20.6271ZM85.3367 8.26815L88.9844 14.5873L93.1976 10.3747L85.3367 8.26815ZM90.2222 16.7304L93.5493 22.493C96.2829 21.0677 99.358 20.2067 102.619 20.0658V13.4086L90.2222 16.7304ZM91.909 23.4412L88.5826 17.6798L79.5053 26.757L85.2662 30.0835C86.1183 28.7501 87.1113 27.5153 88.2255 26.4011C89.3397 25.2869 90.5745 24.2933 91.909 23.4412ZM87.3436 15.5343L83.6958 9.21635L81.5898 17.0761L87.3436 15.5343ZM71.0401 21.8703L77.3605 25.5192L78.9023 19.7637L71.0401 21.8703ZM84.318 31.7243L78.5565 28.3978L75.2348 40.795H81.8902C82.0305 37.533 82.8915 34.4579 84.3174 31.7237L84.318 31.7243ZM76.4123 27.1594L70.0961 23.5129L72.2015 31.3702L76.4123 27.1594ZM65.4685 40.7956H72.761L71.2193 35.0442L65.4685 40.7956ZM81.8896 42.6986H75.2366L78.5583 55.0951L84.318 51.7698C82.8921 49.0363 82.0311 45.9612 81.8896 42.6986ZM72.7574 42.6986H65.4691L71.2169 48.4463L72.7574 42.6986ZM70.0943 59.9818L76.4123 56.3335L72.2003 52.1209L70.0943 59.9818ZM85.2674 53.4101L79.5065 56.7354L88.5838 65.8126L91.9102 60.0517C90.5757 59.1996 89.3409 58.206 88.2261 57.0918C87.1119 55.9776 86.1189 54.7434 85.2674 53.4095V53.4101ZM77.3641 57.9732L71.0449 61.6215L78.9058 63.7275L77.3641 57.9732ZM83.6982 74.2766L87.3477 67.9544L81.591 66.4121L83.6982 74.2766ZM93.5505 61.0011L90.2258 66.7602L102.622 70.0819V63.4283C99.3609 63.2868 96.2852 62.4276 93.5505 61.0017V61.0011ZM88.9868 68.9068L85.3409 75.2206L93.1952 73.1164L88.9862 68.9068H88.9868ZM102.622 79.8506V72.5575L96.8704 74.0987L102.622 79.8506ZM104.525 63.4277V70.0801L116.919 66.759L113.595 60.9993C110.861 62.4246 107.787 63.2862 104.526 63.4277H104.525ZM104.525 72.5575V79.847L110.274 74.0981L104.525 72.5575ZM121.805 75.2218L118.158 68.9056L113.948 73.1164L121.805 75.2218ZM115.237 60.0487L118.563 65.809L127.639 56.733L121.877 53.4065C121.025 54.7416 120.031 55.977 118.916 57.0918C117.803 58.2048 116.57 59.1978 115.237 60.0487ZM119.802 67.9544L123.448 74.2694L125.553 66.4133L119.802 67.9544ZM136.103 61.6191L129.784 57.972L128.242 63.7251L136.103 61.6191ZM122.826 51.7662L128.586 55.0915L131.908 42.6956H125.253C125.112 45.957 124.252 49.0321 122.827 51.7656L122.826 51.7662ZM130.732 56.3305L137.049 59.9777L134.943 52.1197L130.732 56.3305ZM141.676 42.6962H134.39L135.93 48.4427L141.676 42.6962ZM125.252 40.7926H131.907L128.586 28.396L122.824 31.7231C124.25 34.4567 125.111 37.5318 125.252 40.7926ZM134.388 40.7926H141.673L135.928 35.0478L134.388 40.7926ZM137.048 23.5111L130.733 27.157L134.943 31.3673L137.048 23.5111ZM121.875 30.0829L127.636 26.7564L118.56 17.6792L115.233 23.4412C116.567 24.2927 117.802 25.2863 118.916 26.4011C120.03 27.5147 121.023 28.7495 121.875 30.0829ZM129.785 25.5162L136.1 21.8703L128.244 19.7649L129.785 25.5162ZM123.447 9.21456L119.8 15.5314L125.553 17.0737L123.447 9.21456ZM113.593 22.493L116.92 16.7304L104.523 13.4092V20.0652C107.784 20.2067 110.859 21.0671 113.593 22.4924V22.493ZM118.159 14.5844L121.806 8.26874L113.946 10.3741L118.159 14.5844ZM104.522 3.64295V10.9318L110.271 9.39131L104.522 3.64295ZM102.619 10.9277V3.64355L96.8746 9.38832L102.619 10.9277ZM117.57 27.747C113.988 24.1643 109.038 21.9485 103.571 21.9485C98.1034 21.9485 93.1528 24.1643 89.5702 27.747C85.9881 31.3296 83.7717 36.2797 83.7717 41.7468C83.7717 47.2139 85.9881 52.1645 89.5702 55.7466C93.1528 59.3292 98.1028 61.5457 103.571 61.5457C109.037 61.5457 113.988 59.3292 117.57 55.7466C121.153 52.1645 123.369 47.2145 123.369 41.7468C123.369 36.2803 121.153 31.3296 117.57 27.747ZM85.5994 65.5212L79.7961 59.7179L81.0226 64.2947L85.5994 65.5212ZM79.7937 23.7768L85.6024 17.9682L81.0214 19.1952L79.7937 23.7768ZM121.545 17.97L127.346 23.7703L126.12 19.1958L121.545 17.97ZM127.346 59.7161L121.541 65.5206L126.119 64.2942L127.345 59.7167L127.346 59.7161ZM72.7676 49.9976L76.1245 53.3551L73.9958 45.4118L72.7676 49.9976ZM91.961 69.191L95.3167 72.5474L99.9013 71.3191L91.961 69.1916V69.191ZM111.823 72.5474L115.178 69.1928L107.242 71.3191L111.824 72.5468L111.823 72.5474ZM131.023 53.348L134.374 49.997L133.148 45.4208L131.023 53.3486V53.348ZM134.372 33.493L131.026 30.1468L133.148 38.0626L134.372 33.4924V33.493ZM115.17 14.29L111.821 10.942L107.25 12.1673L115.17 14.29ZM95.3197 10.9426L91.9676 14.2942L99.8989 12.1691L95.3197 10.9426ZM76.1215 30.1402L72.77 33.4918L73.9964 38.071L76.1215 30.1402Z" fill="url(#paint0_linear_2069_283)"/>
<path d="M24.2647 97.4064V110.355H8.94467V97.4064H0V130.71H8.94467V117.808H24.2647V130.71H33.2093V97.4064H24.2647ZM41.5873 130.71H70.276V123.479H50.5314V117.143H69.5624V110.918H50.5314V104.638H70.276V97.4064H41.5873V130.71ZM78.654 130.71H106.313V123.241H87.5987V97.4064H78.654V130.71ZM114.492 130.71H123.436V97.4064H114.492V130.71ZM149.751 131.805C160.796 131.805 168.211 124.573 168.211 114.059C168.211 103.505 160.796 96.3131 149.751 96.3131C138.666 96.3131 131.252 103.505 131.252 114.059C131.252 124.574 138.666 131.805 149.751 131.805ZM149.751 124.097C144.327 124.097 140.132 120.172 140.132 114.059C140.132 107.905 144.327 104.02 149.751 104.02C155.135 104.02 159.369 107.905 159.369 114.059C159.369 120.172 155.135 124.097 149.751 124.097ZM190.909 131.805C201.614 131.844 207.125 128.126 207.125 121.275C207.125 112.941 198.878 112.148 192.456 110.998L188.847 110.364C185.755 109.848 184.479 108.619 184.479 106.915C184.479 104.734 186.548 103.306 190.79 103.306C195.509 103.306 197.689 105.13 198.165 107.865H206.173C206.173 99.1989 199.949 96.3125 190.948 96.3125C181.235 96.3125 175.883 100.142 175.883 106.517C175.883 114.177 182.583 115.565 188.927 116.635L193.09 117.349C196.817 117.943 198.244 119.093 198.244 120.997C198.244 123.256 195.746 124.803 190.909 124.763C185.675 124.763 183.296 122.939 183.098 120.125H175.01C174.892 128.205 180.283 131.805 190.909 131.805Z" fill="#2B2A29"/>
<path d="M5.05273 144.81V148.285H4.01018V144.81L0.198242 140.922H1.57756L4.52011 143.909L7.47459 140.922H8.84316L5.05273 144.81ZM18.1527 147.351C17.4027 148.024 16.3912 148.361 15.1176 148.361C13.8362 148.361 12.8241 148.026 12.0825 147.356C11.3403 146.686 10.9689 145.772 10.9689 144.614C10.9689 143.456 11.3492 142.551 12.1093 141.899C12.8408 141.27 13.8433 140.955 15.1182 140.955C16.3918 140.955 17.3985 141.27 18.1371 141.899C18.8973 142.551 19.2776 143.456 19.2776 144.614C19.2776 145.765 18.9032 146.677 18.1539 147.351H18.1527ZM17.4194 142.6C16.8761 142.133 16.1088 141.899 15.117 141.899C14.1252 141.899 13.3615 142.134 12.8247 142.606C12.2891 143.076 12.021 143.746 12.021 144.614C12.021 145.483 12.2927 146.167 12.8354 146.666C13.3788 147.166 14.1389 147.416 15.1164 147.416C16.1076 147.416 16.8755 147.169 17.4188 146.672C17.9616 146.176 18.2333 145.491 18.2333 144.614C18.2333 143.738 17.9616 143.066 17.4188 142.6H17.4194ZM28.3853 147.698C27.8348 148.14 27.0096 148.361 25.9091 148.361C23.6502 148.361 22.5211 147.391 22.5211 145.45V140.922H23.5637V145.45C23.5637 146.116 23.7506 146.611 24.1231 146.933C24.4957 147.255 25.0917 147.416 25.9097 147.416C26.7206 147.416 27.3177 147.253 27.7016 146.927C28.0706 146.622 28.2551 146.141 28.2551 145.482V140.921H29.2977V145.471C29.2977 146.471 28.9932 147.213 28.3853 147.697V147.698ZM38.483 144.691C39.0478 145.045 39.3297 145.581 39.3297 146.298V148.285H38.2871V146.331C38.2871 145.578 37.6936 145.202 36.5066 145.202H33.8566V148.286H32.814V140.923H36.6045C38.4937 140.923 39.4384 141.604 39.4384 142.964C39.4384 143.739 39.1201 144.315 38.483 144.691V144.691ZM36.626 141.867H33.8566V144.245H36.4522C37.0314 144.245 37.4906 144.147 37.8315 143.953C38.2077 143.735 38.3958 143.416 38.3958 142.997C38.3958 142.244 37.8059 141.868 36.626 141.868V141.867ZM47.9895 141.867V143.985H51.986V144.929H47.9895V148.285H46.9577V140.922H52.6589V141.867H47.9889H47.9895ZM61.388 147.699C60.8375 148.141 60.0123 148.362 58.9118 148.362C56.653 148.362 55.5238 147.391 55.5238 145.451V140.922H56.5664V145.451C56.5664 146.117 56.7533 146.612 57.1259 146.933C57.4985 147.255 58.0944 147.416 58.9124 147.416C59.7233 147.416 60.3204 147.253 60.7043 146.927C61.0734 146.623 61.2579 146.142 61.2579 145.483V140.922H62.3004V145.472C62.3004 146.471 61.9959 147.213 61.388 147.698V147.699ZM69.0853 141.867V148.285H68.0428V141.867H65.2191V140.922H71.8983V141.867H69.0853ZM80.6818 147.699C80.1312 148.141 79.306 148.362 78.2056 148.362C75.9467 148.362 74.8176 147.391 74.8176 145.451V140.922H75.8601V145.451C75.8601 146.117 76.047 146.612 76.4196 146.933C76.7922 147.255 77.3881 147.416 78.2062 147.416C79.017 147.416 79.6141 147.253 79.9981 146.927C80.3671 146.623 80.5516 146.142 80.5516 145.483V140.922H81.5941V145.472C81.5941 146.471 81.2896 147.213 80.6818 147.698V147.699ZM90.7795 144.691C91.3443 145.046 91.6261 145.582 91.6261 146.299V148.286H90.5836V146.331C90.5836 145.579 89.9901 145.202 88.803 145.202H86.1531V148.286H85.1105V140.923H88.9009C90.7902 140.923 91.7348 141.604 91.7348 142.965C91.7348 143.739 91.4166 144.316 90.7795 144.692V144.691ZM88.9224 141.868H86.1531V144.246H88.7487C89.3279 144.246 89.7871 144.148 90.128 143.953C90.5042 143.736 90.6923 143.417 90.6923 142.997C90.6923 142.244 90.1023 141.868 88.9224 141.868V141.868ZM95.1646 148.286V140.923H101.257V141.868H96.1958V143.985H100.681V144.93H96.1958V147.341H101.311V148.286H95.1646ZM105.859 148.981C105.779 149.17 105.577 149.263 105.251 149.263C104.969 149.263 104.827 149.137 104.827 148.884C104.827 148.847 104.838 148.8 104.86 148.742L105.316 147.634C105.396 147.446 105.559 147.352 105.805 147.352C105.942 147.352 106.065 147.387 106.174 147.455C106.283 147.524 106.337 147.616 106.337 147.731C106.337 147.775 106.33 147.818 106.316 147.861L105.86 148.98L105.859 148.981ZM118.103 144.811V148.286H117.061V144.811L113.249 140.923H114.628L117.57 143.91L120.525 140.923H121.894L118.103 144.811ZM131.203 147.353C130.453 148.025 129.442 148.362 128.168 148.362C126.887 148.362 125.874 148.027 125.133 147.357C124.391 146.687 124.019 145.773 124.019 144.615C124.019 143.457 124.4 142.552 125.16 141.9C125.891 141.271 126.894 140.956 128.169 140.956C129.442 140.956 130.449 141.271 131.188 141.9C131.948 142.552 132.328 143.458 132.328 144.615C132.328 145.767 131.954 146.678 131.204 147.353H131.203ZM130.47 142.601C129.926 142.134 129.159 141.9 128.167 141.9C127.176 141.9 126.412 142.136 125.875 142.607C125.339 143.077 125.071 143.747 125.071 144.615C125.071 145.484 125.343 146.168 125.886 146.668C126.429 147.167 127.189 147.418 128.167 147.418C129.158 147.418 129.926 147.17 130.469 146.674C131.012 146.177 131.284 145.492 131.284 144.615C131.284 143.739 131.012 143.068 130.469 142.601H130.47ZM141.436 147.699C140.885 148.141 140.06 148.362 138.959 148.362C136.701 148.362 135.571 147.392 135.571 145.451V140.923H136.614V145.451C136.614 146.117 136.801 146.612 137.174 146.934C137.546 147.256 138.142 147.417 138.96 147.417C139.771 147.417 140.368 147.254 140.752 146.928C141.121 146.623 141.305 146.142 141.305 145.484V140.922H142.348V145.472C142.348 146.472 142.044 147.214 141.436 147.698V147.699ZM151.533 144.692C152.098 145.047 152.38 145.582 152.38 146.299V148.286H151.337V146.332C151.337 145.579 150.744 145.203 149.557 145.203H146.907V148.287H145.864V140.924H149.655C151.544 140.924 152.489 141.605 152.489 142.966C152.489 143.74 152.17 144.316 151.533 144.692V144.692ZM149.676 141.868H146.907V144.246H149.503C150.082 144.246 150.541 144.148 150.882 143.954C151.258 143.736 151.446 143.418 151.446 142.998C151.446 142.245 150.856 141.869 149.676 141.869V141.868ZM163.375 148.363C162.391 148.363 161.586 148.196 160.963 147.863C160.167 147.429 159.769 146.748 159.769 145.822V145.343H160.822V145.789C160.822 146.875 161.676 147.418 163.385 147.418C164.008 147.418 164.514 147.331 164.906 147.157C165.369 146.961 165.601 146.668 165.601 146.278C165.601 145.995 165.528 145.789 165.383 145.659C165.239 145.528 164.982 145.413 164.612 145.311C164.395 145.254 163.885 145.145 163.081 144.986C162.132 144.797 161.485 144.62 161.137 144.453C160.391 144.098 160.019 143.563 160.019 142.846C160.019 141.513 161.069 140.848 163.168 140.848C165.355 140.848 166.462 141.742 166.491 143.53H165.47C165.42 142.763 165.196 142.278 164.797 142.075C164.443 141.887 163.899 141.793 163.168 141.793C161.764 141.793 161.061 142.145 161.061 142.847C161.061 143.18 161.227 143.429 161.561 143.596C161.836 143.726 162.317 143.849 163.005 143.966C164.351 144.19 165.257 144.432 165.72 144.693C166.336 145.041 166.643 145.576 166.643 146.3C166.643 147.032 166.256 147.578 165.481 147.94C164.895 148.223 164.193 148.364 163.375 148.364V148.363ZM175.6 144.833C175.065 145.13 174.399 145.278 173.602 145.278H171.105V148.287H170.062V140.924H173.722C175.676 140.924 176.654 141.659 176.654 143.129C176.654 143.882 176.303 144.451 175.6 144.834V144.833ZM173.787 141.868H171.104V144.334H173.798C174.318 144.334 174.742 144.233 175.068 144.03C175.423 143.813 175.6 143.516 175.6 143.139C175.6 142.293 174.995 141.869 173.787 141.869V141.868ZM186.013 148.286L184.959 146.115H181.332L180.257 148.286H179.084L182.776 140.923H183.591L187.153 148.286H186.013ZM183.178 142.454L181.81 145.17H184.503L183.178 142.454ZM196.61 142.997C196.291 142.563 195.931 142.253 195.529 142.069C195.128 141.885 194.626 141.792 194.025 141.792C193.047 141.792 192.275 142.047 191.707 142.557C191.138 143.068 190.854 143.754 190.854 144.615C190.854 145.47 191.124 146.15 191.663 146.657C192.202 147.164 192.95 147.418 193.905 147.418C194.477 147.418 194.968 147.323 195.377 147.135C195.786 146.947 196.168 146.635 196.522 146.201L197.413 146.733C196.515 147.819 195.35 148.363 193.916 148.363C192.671 148.363 191.676 148.028 190.93 147.358C190.184 146.688 189.812 145.789 189.812 144.66C189.812 143.494 190.195 142.567 190.963 141.879C191.731 141.192 192.751 140.848 194.025 140.848C195.516 140.848 196.672 141.387 197.49 142.466L196.61 142.998V142.997ZM200.767 148.286V140.923H206.86V141.868H201.798V143.986H206.283V144.931H201.798V147.342H206.914V148.286H200.767Z" fill="#2B2A29"/>
</g>
<defs>
<linearGradient id="paint0_linear_2069_283" x1="51.0687" y1="81.9823" x2="153.023" y2="6.61298" gradientUnits="userSpaceOnUse">
<stop stop-color="#E53A24"/>
<stop offset="0.121569" stop-color="#EA5E20"/>
<stop offset="0.180392" stop-color="#EA5E20"/>
<stop offset="0.290196" stop-color="#F18917"/>
<stop offset="0.360784" stop-color="#F9B101"/>
<stop offset="0.521569" stop-color="#E53A24"/>
<stop offset="0.611765" stop-color="#F9B101"/>
<stop offset="0.74902" stop-color="#F18917"/>
<stop offset="0.870588" stop-color="#E53A24"/>
<stop offset="0.909804" stop-color="#EA5E20"/>
<stop offset="1" stop-color="#EA5E20"/>
</linearGradient>
<clipPath id="clip0_2069_283">
<rect width="207.125" height="149.263" fill="white"/>
</clipPath>
</defs>
</svg>
