<svg width="48" height="12" viewBox="0 0 48 12" fill="none" xmlns="http://www.w3.org/2000/svg">
<path d="M8.07955 3H7.02273C6.96023 2.69602 6.85085 2.42898 6.6946 2.19886C6.54119 1.96875 6.35369 1.77557 6.1321 1.61932C5.91335 1.46023 5.67045 1.34091 5.40341 1.26136C5.13636 1.18182 4.85795 1.14205 4.56818 1.14205C4.03977 1.14205 3.56108 1.27557 3.1321 1.54261C2.70597 1.80966 2.36648 2.20312 2.11364 2.72301C1.86364 3.2429 1.73864 3.88068 1.73864 4.63636C1.73864 5.39205 1.86364 6.02983 2.11364 6.54972C2.36648 7.0696 2.70597 7.46307 3.1321 7.73011C3.56108 7.99716 4.03977 8.13068 4.56818 8.13068C4.85795 8.13068 5.13636 8.09091 5.40341 8.01136C5.67045 7.93182 5.91335 7.81392 6.1321 7.65767C6.35369 7.49858 6.54119 7.30398 6.6946 7.07386C6.85085 6.84091 6.96023 6.57386 7.02273 6.27273H8.07955C8 6.71875 7.85511 7.1179 7.64489 7.47017C7.43466 7.82244 7.1733 8.12216 6.8608 8.36932C6.5483 8.61364 6.19744 8.79972 5.80824 8.92756C5.42188 9.0554 5.00852 9.11932 4.56818 9.11932C3.82386 9.11932 3.16193 8.9375 2.58239 8.57386C2.00284 8.21023 1.54688 7.69318 1.21449 7.02273C0.882102 6.35227 0.715909 5.55682 0.715909 4.63636C0.715909 3.71591 0.882102 2.92045 1.21449 2.25C1.54688 1.57955 2.00284 1.0625 2.58239 0.698864C3.16193 0.335227 3.82386 0.153409 4.56818 0.153409C5.00852 0.153409 5.42188 0.217329 5.80824 0.34517C6.19744 0.473011 6.5483 0.660511 6.8608 0.90767C7.1733 1.15199 7.43466 1.45028 7.64489 1.80256C7.85511 2.15199 8 2.55114 8.07955 3ZM10.2987 11.4545C10.1282 11.4545 9.97621 11.4403 9.84268 11.4119C9.70916 11.3864 9.61683 11.3608 9.5657 11.3352L9.82138 10.4489C10.0657 10.5114 10.2816 10.5341 10.4691 10.517C10.6566 10.5 10.8228 10.4162 10.9677 10.2656C11.1154 10.1179 11.2504 9.87784 11.3725 9.54545L11.56 9.03409L9.13956 2.45455H10.2305L12.0373 7.67045H12.1055L13.9123 2.45455H15.0032L12.2248 9.95455C12.0998 10.2926 11.945 10.5724 11.7603 10.794C11.5756 11.0185 11.3612 11.1847 11.1168 11.2926C10.8754 11.4006 10.6026 11.4545 10.2987 11.4545ZM16.467 9V0.272727H17.4727V3.49432H17.5579C17.6317 3.38068 17.734 3.2358 17.8647 3.05966C17.9982 2.88068 18.1886 2.72159 18.4357 2.58239C18.6857 2.44034 19.0238 2.36932 19.4499 2.36932C20.0011 2.36932 20.4869 2.5071 20.9073 2.78267C21.3278 3.05824 21.6559 3.44886 21.8917 3.95455C22.1275 4.46023 22.2454 5.05682 22.2454 5.74432C22.2454 6.4375 22.1275 7.03835 21.8917 7.54688C21.6559 8.05256 21.3292 8.4446 20.9116 8.72301C20.494 8.99858 20.0124 9.13636 19.467 9.13636C19.0465 9.13636 18.7099 9.06676 18.457 8.92756C18.2042 8.78551 18.0096 8.625 17.8732 8.44602C17.7369 8.2642 17.6317 8.11364 17.5579 7.99432H17.4386V9H16.467ZM17.4556 5.72727C17.4556 6.22159 17.5281 6.65767 17.6729 7.03551C17.8178 7.41051 18.0295 7.70455 18.3079 7.91761C18.5863 8.12784 18.9272 8.23295 19.3306 8.23295C19.7511 8.23295 20.1019 8.12216 20.3832 7.90057C20.6673 7.67614 20.8803 7.375 21.0224 6.99716C21.1673 6.61648 21.2397 6.19318 21.2397 5.72727C21.2397 5.26705 21.1687 4.85227 21.0266 4.48295C20.8874 4.1108 20.6758 3.81676 20.3917 3.60085C20.1104 3.3821 19.7567 3.27273 19.3306 3.27273C18.9215 3.27273 18.5778 3.37642 18.2994 3.58381C18.021 3.78835 17.8107 4.07528 17.6687 4.4446C17.5266 4.81108 17.4556 5.23864 17.4556 5.72727ZM26.6303 2.45455V3.30682H23.2383V2.45455H26.6303ZM24.2269 0.886364H25.2326V7.125C25.2326 7.40909 25.2738 7.62216 25.3562 7.7642C25.4414 7.90341 25.5494 7.99716 25.68 8.04545C25.8136 8.09091 25.9542 8.11364 26.1019 8.11364C26.2127 8.11364 26.3036 8.10795 26.3746 8.09659C26.4457 8.08239 26.5025 8.07102 26.5451 8.0625L26.7496 8.96591C26.6815 8.99148 26.5863 9.01705 26.4641 9.04261C26.342 9.07102 26.1871 9.08523 25.9996 9.08523C25.7156 9.08523 25.4371 9.02415 25.1644 8.90199C24.8945 8.77983 24.6701 8.59375 24.4911 8.34375C24.315 8.09375 24.2269 7.77841 24.2269 7.39773V0.886364ZM30.8171 9.13636C30.1864 9.13636 29.6424 8.99716 29.185 8.71875C28.7305 8.4375 28.3796 8.04545 28.1325 7.54261C27.8881 7.03693 27.766 6.44886 27.766 5.77841C27.766 5.10795 27.8881 4.51705 28.1325 4.00568C28.3796 3.49148 28.7234 3.09091 29.1637 2.80398C29.6069 2.5142 30.1239 2.36932 30.7148 2.36932C31.0558 2.36932 31.3924 2.42614 31.7248 2.53977C32.0572 2.65341 32.3597 2.83807 32.6325 3.09375C32.9052 3.34659 33.1225 3.68182 33.2844 4.09943C33.4464 4.51705 33.5273 5.03125 33.5273 5.64205V6.06818H28.4819V5.19886H32.5046C32.5046 4.82955 32.4308 4.5 32.283 4.21023C32.1381 3.92045 31.9308 3.69176 31.6609 3.52415C31.3938 3.35653 31.0785 3.27273 30.7148 3.27273C30.3143 3.27273 29.9677 3.37216 29.6751 3.57102C29.3853 3.76705 29.1623 4.02273 29.006 4.33807C28.8498 4.65341 28.7717 4.99148 28.7717 5.35227V5.93182C28.7717 6.42614 28.8569 6.84517 29.0273 7.18892C29.2006 7.52983 29.4407 7.78977 29.7475 7.96875C30.0543 8.14489 30.4109 8.23295 30.8171 8.23295C31.0813 8.23295 31.32 8.19602 31.533 8.12216C31.7489 8.04545 31.935 7.93182 32.0913 7.78125C32.2475 7.62784 32.3683 7.4375 32.4535 7.21023L33.4251 7.48295C33.3228 7.8125 33.1509 8.10227 32.9094 8.35227C32.668 8.59943 32.3697 8.79261 32.0146 8.93182C31.6594 9.06818 31.2603 9.13636 30.8171 9.13636ZM35.9947 6.61364L35.9776 5.36932H36.1822L39.0458 2.45455H40.2901L37.239 5.53977H37.1538L35.9947 6.61364ZM35.0572 9V0.272727H36.0629V9H35.0572ZM39.2163 9L36.6594 5.76136L37.3754 5.0625L40.4947 9H39.2163ZM42.522 6.61364L42.505 5.36932H42.7095L45.5732 2.45455H46.8175L43.7663 5.53977H43.6811L42.522 6.61364ZM41.5845 9V0.272727H42.5902V9H41.5845ZM45.7436 9L43.1868 5.76136L43.9027 5.0625L47.022 9H45.7436Z" fill="url(#paint0_linear_2182_1238)"/>
<defs>
<linearGradient id="paint0_linear_2182_1238" x1="0" y1="4.5" x2="48" y2="4.5" gradientUnits="userSpaceOnUse">
<stop stop-color="#6893F4"/>
<stop offset="1" stop-color="#C932FB"/>
</linearGradient>
</defs>
</svg>
