<svg width="53" height="12" viewBox="0 0 53 12" fill="none" xmlns="http://www.w3.org/2000/svg">
<path d="M8.07955 3H7.02273C6.96023 2.69602 6.85085 2.42898 6.6946 2.19886C6.54119 1.96875 6.35369 1.77557 6.1321 1.61932C5.91335 1.46023 5.67045 1.34091 5.40341 1.26136C5.13636 1.18182 4.85795 1.14205 4.56818 1.14205C4.03977 1.14205 3.56108 1.27557 3.1321 1.54261C2.70597 1.80966 2.36648 2.20312 2.11364 2.72301C1.86364 3.2429 1.73864 3.88068 1.73864 4.63636C1.73864 5.39205 1.86364 6.02983 2.11364 6.54972C2.36648 7.0696 2.70597 7.46307 3.1321 7.73011C3.56108 7.99716 4.03977 8.13068 4.56818 8.13068C4.85795 8.13068 5.13636 8.09091 5.40341 8.01136C5.67045 7.93182 5.91335 7.81392 6.1321 7.65767C6.35369 7.49858 6.54119 7.30398 6.6946 7.07386C6.85085 6.84091 6.96023 6.57386 7.02273 6.27273H8.07955C8 6.71875 7.85511 7.1179 7.64489 7.47017C7.43466 7.82244 7.1733 8.12216 6.8608 8.36932C6.5483 8.61364 6.19744 8.79972 5.80824 8.92756C5.42188 9.0554 5.00852 9.11932 4.56818 9.11932C3.82386 9.11932 3.16193 8.9375 2.58239 8.57386C2.00284 8.21023 1.54688 7.69318 1.21449 7.02273C0.882102 6.35227 0.715909 5.55682 0.715909 4.63636C0.715909 3.71591 0.882102 2.92045 1.21449 2.25C1.54688 1.57955 2.00284 1.0625 2.58239 0.698864C3.16193 0.335227 3.82386 0.153409 4.56818 0.153409C5.00852 0.153409 5.42188 0.217329 5.80824 0.34517C6.19744 0.473011 6.5483 0.660511 6.8608 0.90767C7.1733 1.15199 7.43466 1.45028 7.64489 1.80256C7.85511 2.15199 8 2.55114 8.07955 3ZM10.2987 11.4545C10.1282 11.4545 9.97621 11.4403 9.84268 11.4119C9.70916 11.3864 9.61683 11.3608 9.5657 11.3352L9.82138 10.4489C10.0657 10.5114 10.2816 10.5341 10.4691 10.517C10.6566 10.5 10.8228 10.4162 10.9677 10.2656C11.1154 10.1179 11.2504 9.87784 11.3725 9.54545L11.56 9.03409L9.13956 2.45455H10.2305L12.0373 7.67045H12.1055L13.9123 2.45455H15.0032L12.2248 9.95455C12.0998 10.2926 11.945 10.5724 11.7603 10.794C11.5756 11.0185 11.3612 11.1847 11.1168 11.2926C10.8754 11.4006 10.6026 11.4545 10.2987 11.4545ZM16.467 9V0.272727H17.4727V3.49432H17.5579C17.6317 3.38068 17.734 3.2358 17.8647 3.05966C17.9982 2.88068 18.1886 2.72159 18.4357 2.58239C18.6857 2.44034 19.0238 2.36932 19.4499 2.36932C20.0011 2.36932 20.4869 2.5071 20.9073 2.78267C21.3278 3.05824 21.6559 3.44886 21.8917 3.95455C22.1275 4.46023 22.2454 5.05682 22.2454 5.74432C22.2454 6.4375 22.1275 7.03835 21.8917 7.54688C21.6559 8.05256 21.3292 8.4446 20.9116 8.72301C20.494 8.99858 20.0124 9.13636 19.467 9.13636C19.0465 9.13636 18.7099 9.06676 18.457 8.92756C18.2042 8.78551 18.0096 8.625 17.8732 8.44602C17.7369 8.2642 17.6317 8.11364 17.5579 7.99432H17.4386V9H16.467ZM17.4556 5.72727C17.4556 6.22159 17.5281 6.65767 17.6729 7.03551C17.8178 7.41051 18.0295 7.70455 18.3079 7.91761C18.5863 8.12784 18.9272 8.23295 19.3306 8.23295C19.7511 8.23295 20.1019 8.12216 20.3832 7.90057C20.6673 7.67614 20.8803 7.375 21.0224 6.99716C21.1673 6.61648 21.2397 6.19318 21.2397 5.72727C21.2397 5.26705 21.1687 4.85227 21.0266 4.48295C20.8874 4.1108 20.6758 3.81676 20.3917 3.60085C20.1104 3.3821 19.7567 3.27273 19.3306 3.27273C18.9215 3.27273 18.5778 3.37642 18.2994 3.58381C18.021 3.78835 17.8107 4.07528 17.6687 4.4446C17.5266 4.81108 17.4556 5.23864 17.4556 5.72727ZM22.9624 1.21023V0.272727H29.5078V1.21023H26.7635V9H25.7067V1.21023H22.9624ZM31.1388 9V0.272727H36.4059V1.21023H32.1957V4.15909H36.1332V5.09659H32.1957V8.0625H36.4741V9H31.1388ZM38.3107 9V0.272727H39.3675V4.60227H39.4698L43.3903 0.272727H44.771L41.1062 4.21023L44.771 9H43.4925L40.4585 4.94318L39.3675 6.17045V9H38.3107ZM46.1388 9V0.272727H47.1957V4.60227H47.2979L51.2184 0.272727H52.5991L48.9343 4.21023L52.5991 9H51.3207L48.2866 4.94318L47.1957 6.17045V9H46.1388Z" fill="url(#paint0_linear_2198_372)"/>
<defs>
<linearGradient id="paint0_linear_2198_372" x1="0" y1="4.5" x2="53" y2="4.5" gradientUnits="userSpaceOnUse">
<stop stop-color="#6893F4"/>
<stop offset="1" stop-color="#C932FB"/>
</linearGradient>
</defs>
</svg>

