<svg width="12" height="12" viewBox="0 0 12 12" fill="none" xmlns="http://www.w3.org/2000/svg">
<path d="M7.77512 6.49805L6.77009 7.50647C6.36254 7.91545 5.64545 7.92427 5.22908 7.50647L4.22401 6.49805L0.614258 10.1195C0.748625 10.1816 0.896773 10.2187 1.05427 10.2187H10.9449C11.1024 10.2187 11.2505 10.1817 11.3848 10.1195L7.77512 6.49805Z" fill="white"/>
<path d="M10.9449 1.78125H1.05423C0.896727 1.78125 0.748578 1.81833 0.614258 1.88046L4.47153 5.75053C4.47179 5.75079 4.47209 5.75084 4.47235 5.75109C4.47261 5.75135 4.47266 5.7517 4.47266 5.7517L5.72687 7.01006C5.86009 7.14328 6.13904 7.14328 6.27226 7.01006L7.52621 5.75191C7.52621 5.75191 7.52652 5.75135 7.52677 5.75109C7.52677 5.75109 7.52734 5.75079 7.52759 5.75053L11.3848 1.88044C11.2505 1.81828 11.1024 1.78125 10.9449 1.78125Z" fill="white"/>
<path d="M0.112172 2.37305C0.0426562 2.51363 0 2.66967 0 2.83683V9.16495C0 9.33211 0.0426094 9.48816 0.112148 9.62873L3.72816 6.00101L0.112172 2.37305Z" fill="white"/>
<path d="M11.8874 2.37109L8.27148 5.9991L11.8874 9.62687C11.957 9.4863 11.9996 9.33025 11.9996 9.16305V2.83492C11.9996 2.66772 11.957 2.51167 11.8874 2.37109Z" fill="white"/>
</svg>
