<svg width="13" height="12" viewBox="0 0 13 12" fill="none" xmlns="http://www.w3.org/2000/svg">
<path d="M4 7.5V11.5C4 11.6326 4.05268 11.7598 4.14645 11.8536C4.24021 11.9473 4.36739 12 4.5 12H8.5C8.63261 12 8.75978 11.9473 8.85355 11.8536C8.94732 11.7598 9 11.6326 9 11.5V7.5H4ZM7.5 11H5.5C5.36739 11 5.24021 10.9473 5.14645 10.8536C5.05268 10.7598 5 10.6326 5 10.5C5 10.3674 5.05268 10.2402 5.14645 10.1464C5.24021 10.0527 5.36739 10 5.5 10H7.5C7.63261 10 7.75978 10.0527 7.85355 10.1464C7.94732 10.2402 8 10.3674 8 10.5C8 10.6326 7.94732 10.7598 7.85355 10.8536C7.75978 10.9473 7.63261 11 7.5 11ZM7.5 9.5H5.5C5.36739 9.5 5.24021 9.44732 5.14645 9.35355C5.05268 9.25979 5 9.13261 5 9C5 8.86739 5.05268 8.74021 5.14645 8.64645C5.24021 8.55268 5.36739 8.5 5.5 8.5H7.5C7.63261 8.5 7.75978 8.55268 7.85355 8.64645C7.94732 8.74021 8 8.86739 8 9C8 9.13261 7.94732 9.25979 7.85355 9.35355C7.75978 9.44732 7.63261 9.5 7.5 9.5Z" fill="#F7F7F7"/>
<path d="M11.5 3H1.5C1.30294 2.99974 1.10777 3.03836 0.925665 3.11365C0.743558 3.18893 0.578094 3.29941 0.438754 3.43875C0.299414 3.57809 0.188935 3.74356 0.113646 3.92566C0.038357 4.10777 -0.000261932 4.30294 1.33702e-06 4.5V8.5C0.00116214 8.89747 0.15957 9.27833 0.440623 9.55938C0.721677 9.84043 1.10253 9.99884 1.5 10H3V7C3.00038 6.86751 3.05318 6.74056 3.14687 6.64687C3.24056 6.55319 3.36751 6.50038 3.5 6.5H9.5C9.63249 6.50038 9.75945 6.55319 9.85313 6.64687C9.94682 6.74056 9.99962 6.86751 10 7V10H11.5C11.8975 9.99884 12.2783 9.84043 12.5594 9.55938C12.8404 9.27833 12.9988 8.89747 13 8.5V4.5C13.0003 4.30294 12.9616 4.10777 12.8864 3.92566C12.8111 3.74356 12.7006 3.57809 12.5612 3.43875C12.4219 3.29941 12.2564 3.18893 12.0743 3.11365C11.8922 3.03836 11.6971 2.99974 11.5 3ZM10.5 5.5C10.4341 5.50075 10.3688 5.48832 10.3078 5.46346C10.2468 5.43859 10.1914 5.40179 10.1448 5.35521C10.0982 5.30863 10.0614 5.25322 10.0365 5.19222C10.0117 5.13122 9.99926 5.06587 10 5C10 4.90111 10.0293 4.80444 10.0843 4.72222C10.1392 4.63999 10.2173 4.57591 10.3087 4.53806C10.4 4.50022 10.5006 4.49032 10.5975 4.50961C10.6945 4.5289 10.7836 4.57652 10.8536 4.64645C10.9235 4.71637 10.9711 4.80547 10.9904 4.90246C11.0097 4.99945 10.9998 5.09998 10.9619 5.19134C10.9241 5.28271 10.86 5.3608 10.7778 5.41574C10.6956 5.47068 10.5989 5.5 10.5 5.5Z" fill="#F7F7F7"/>
<path d="M10 0.5V2.5H3V0.5C3.00038 0.367509 3.05318 0.240555 3.14687 0.146869C3.24055 0.0531838 3.36751 0.000382561 3.5 0H9.5C9.63249 0.000382561 9.75944 0.0531838 9.85313 0.146869C9.94682 0.240555 9.99962 0.367509 10 0.5Z" fill="#F7F7F7"/>
</svg>
