<svg width="32" height="32" viewBox="0 0 32 32" fill="none" xmlns="http://www.w3.org/2000/svg">
<path d="M24.6217 0H7.37832C3.30338 0 0 3.30338 0 7.37832V24.6217C0 28.6966 3.30338 32 7.37832 32H24.6217C28.6966 32 32 28.6966 32 24.6217V7.37832C32 3.30338 28.6966 0 24.6217 0Z" fill="url(#paint0_linear_2037_396)"/>
<path d="M21.1612 6.31343C22.376 6.31833 23.5396 6.80307 24.3986 7.66207C25.2576 8.52107 25.7424 9.68471 25.7473 10.8995V21.101C25.7424 22.3158 25.2576 23.4795 24.3986 24.3385C23.5396 25.1975 22.376 25.6822 21.1612 25.6871H10.8399C9.62514 25.6822 8.4615 25.1975 7.6025 24.3385C6.7435 23.4795 6.25875 22.3158 6.25386 21.101V10.8995C6.25875 9.68471 6.7435 8.52107 7.6025 7.66207C8.4615 6.80307 9.62514 6.31833 10.8399 6.31343H21.1612ZM21.1612 4.18038H10.8399C7.14424 4.18038 4.12012 7.20794 4.12012 10.9002V21.101C4.12012 24.7967 7.14768 27.8209 10.8399 27.8209H21.1612C24.8569 27.8209 27.881 24.7933 27.881 21.101V10.8995C27.881 7.20381 24.8569 4.17969 21.1612 4.17969V4.18038Z" fill="white"/>
<path d="M15.9998 12.0178C16.7873 12.0178 17.5572 12.2514 18.212 12.6889C18.8668 13.1264 19.3772 13.7483 19.6786 14.4759C19.98 15.2035 20.0588 16.0042 19.9052 16.7766C19.7515 17.549 19.3723 18.2585 18.8154 18.8154C18.2585 19.3723 17.549 19.7515 16.7766 19.9052C16.0042 20.0588 15.2035 19.98 14.4759 19.6786C13.7483 19.3772 13.1264 18.8668 12.6889 18.212C12.2514 17.5572 12.0178 16.7873 12.0178 15.9998C12.0191 14.9441 12.439 13.932 13.1855 13.1855C13.932 12.439 14.9441 12.0191 15.9998 12.0178ZM15.9998 9.88477C14.7903 9.88477 13.6081 10.2434 12.6025 10.9153C11.5968 11.5873 10.8131 12.5423 10.3502 13.6597C9.88741 14.777 9.76632 16.0065 10.0023 17.1927C10.2382 18.3789 10.8206 19.4685 11.6758 20.3237C12.531 21.1789 13.6206 21.7613 14.8068 21.9973C15.993 22.2332 17.2225 22.1121 18.3399 21.6493C19.4572 21.1865 20.4123 20.4027 21.0842 19.3971C21.7561 18.3915 22.1148 17.2092 22.1148 15.9998C22.1148 14.378 21.4705 12.8226 20.3237 11.6758C19.1769 10.529 17.6216 9.88477 15.9998 9.88477Z" fill="white"/>
<path d="M22.2486 11.0676C23.0493 11.0676 23.6984 10.4185 23.6984 9.61776C23.6984 8.81706 23.0493 8.16797 22.2486 8.16797C21.4479 8.16797 20.7988 8.81706 20.7988 9.61776C20.7988 10.4185 21.4479 11.0676 22.2486 11.0676Z" fill="white"/>
<defs>
<linearGradient id="paint0_linear_2037_396" x1="20.9728" y1="33.3431" x2="11.0272" y2="-1.34314" gradientUnits="userSpaceOnUse">
<stop stop-color="#FFDB73"/>
<stop offset="0.08" stop-color="#FDAD4E"/>
<stop offset="0.15" stop-color="#FB832E"/>
<stop offset="0.19" stop-color="#FA7321"/>
<stop offset="0.23" stop-color="#F6692F"/>
<stop offset="0.37" stop-color="#E84A5A"/>
<stop offset="0.48" stop-color="#E03675"/>
<stop offset="0.55" stop-color="#DD2F7F"/>
<stop offset="0.68" stop-color="#B43D97"/>
<stop offset="0.97" stop-color="#4D60D4"/>
<stop offset="1" stop-color="#4264DB"/>
</linearGradient>
</defs>
</svg>
