<svg width="32" height="32" viewBox="0 0 32 32" fill="none" xmlns="http://www.w3.org/2000/svg">
<g clip-path="url(#clip0_2037_401)">
<rect x="2.40039" y="2.40039" width="28" height="28" fill="white"/>
<path d="M17.0696 15.4531L24.2708 25.7534H21.3154L15.4391 17.3484V17.3478L14.5764 16.114L7.71191 6.29492H10.6673L16.2069 14.2193L17.0696 15.4531Z" fill="black"/>
<path d="M28.5423 0H3.45767C1.5481 0 0 1.5481 0 3.45767V28.5423C0 30.4519 1.5481 32 3.45767 32H28.5423C30.4519 32 32 30.4519 32 28.5423V3.45767C32 1.5481 30.4519 0 28.5423 0ZM20.4106 27.1366L14.4642 18.4823L7.01914 27.1366H5.09496L13.6098 17.2393L5.09496 4.84694H11.5894L17.2203 13.042L24.2702 4.84694H26.1944L18.0749 14.2852H18.0744L26.905 27.1366H20.4106Z" fill="black"/>
</g>
<defs>
<clipPath id="clip0_2037_401">
<rect width="32" height="32" fill="white"/>
</clipPath>
</defs>
</svg>
