<svg width="100" height="73" viewBox="0 0 100 73" fill="none" xmlns="http://www.w3.org/2000/svg">
<g clip-path="url(#clip0_2037_351)">
<path d="M32.9939 9.95878L38.3684 8.5188L39.9272 2.70093L45.7465 4.25824L50.0044 0L54.2644 4.25911L60.0817 2.70036L61.6416 8.51793L67.458 10.0775L65.901 15.894L70.1592 20.1548L65.9013 24.4128L67.4583 30.2312L61.6407 31.79L60.0811 37.6081L54.265 36.0491L50.0044 40.3096L49.6798 39.9847L45.7442 36.0494L39.9277 37.6081L38.3696 31.79L32.5505 30.2315L32.6693 29.7884L34.1093 24.4148L29.8496 20.1551L34.1102 15.8945L32.5508 10.0773L32.9942 9.95849L32.9939 9.95878ZM41.2005 3.99187L42.9616 7.04278L44.9958 5.00894L41.2005 3.99187ZM43.5592 8.07743L45.1656 10.8597C46.4853 10.1715 47.97 9.75582 49.5446 9.68779V6.47371L43.5592 8.07743ZM44.3737 11.3175L42.7676 8.5358L38.3851 12.9183L41.1665 14.5243C41.5779 13.8806 42.0573 13.2844 42.5952 12.7465C43.1332 12.2085 43.7293 11.7288 44.3737 11.3175ZM42.1694 7.5L40.4083 4.44967L39.3915 8.24435L42.1694 7.5ZM34.2981 10.559L37.3496 12.3207L38.094 9.54192L34.2981 10.559ZM40.7087 15.3165L37.927 13.7105L36.3233 19.6959H39.5365C39.6043 18.121 40.02 16.6363 40.7084 15.3162L40.7087 15.3165ZM36.8918 13.1126L33.8423 11.3521L34.8588 15.1456L36.8918 13.1126ZM31.6081 19.6961H35.129L34.3846 16.9194L31.6081 19.6961ZM39.5362 20.6149H36.3242L37.9279 26.6L40.7087 24.9945C40.0203 23.6748 39.6046 22.1901 39.5362 20.6149ZM35.1272 20.6149H31.6084L34.3835 23.3899L35.1272 20.6149ZM33.8415 28.9593L36.8918 27.1979L34.8583 25.164L33.8415 28.9593ZM41.1671 25.7864L38.3857 27.3919L42.7682 31.7744L44.3742 28.993C43.7299 28.5816 43.1337 28.1019 42.5955 27.564C42.0576 27.0261 41.5782 26.4302 41.1671 25.7862V25.7864ZM37.3513 27.9895L34.3004 29.7509L38.0957 30.7677L37.3513 27.9895ZM40.4095 35.8608L42.1714 32.8085L39.3921 32.0638L40.4095 35.8608ZM45.1661 29.4514L43.561 32.2319L49.546 33.8356V30.6233C47.9714 30.5549 46.4865 30.1401 45.1661 29.4517V29.4514ZM42.9628 33.2683L41.2025 36.3166L44.9946 35.3007L42.9625 33.2683H42.9628ZM49.5458 38.552V35.0308L46.769 35.7749L49.5458 38.552ZM50.4648 30.623V33.8348L56.4487 32.2313L54.8436 29.4505C53.5238 30.1387 52.0394 30.5547 50.4651 30.623H50.4648ZM50.4648 35.0308V38.5502L53.2401 35.7746L50.4648 35.0308ZM58.8075 36.3172L57.0466 33.2677L55.0139 35.3007L58.8075 36.3172ZM55.6366 28.9916L57.2421 31.7727L61.624 27.3907L58.8423 25.7847C58.431 26.4293 57.951 27.0258 57.4127 27.564C56.8754 28.1014 56.2798 28.5808 55.6366 28.9916ZM57.8403 32.8085L59.6008 35.8574L60.617 32.0644L57.8403 32.8085ZM65.7104 29.7498L62.6598 27.9889L61.9155 30.7665L65.7104 29.7498ZM59.3004 24.9928L62.0815 26.5982L63.6852 20.6135H60.472C60.4043 22.1881 59.9889 23.6727 59.3007 24.9925L59.3004 24.9928ZM63.1176 27.1964L66.1671 28.9573L65.1506 25.1635L63.1176 27.1964ZM68.401 20.6138H64.8836L65.6268 23.3882L68.401 20.6138ZM60.4717 19.6947H63.6849L62.0815 13.7096L59.2993 15.316C59.9877 16.6357 60.4034 18.1204 60.4717 19.6947ZM64.8828 19.6947H68.3995L65.626 16.9211L64.8828 19.6947ZM66.1668 11.3512L63.1179 13.1115L65.1506 15.1441L66.1668 11.3512ZM58.8412 14.524L61.6228 12.918L57.2406 8.53552L55.6343 11.3175C56.2783 11.7286 56.8748 12.2083 57.4127 12.7465C57.9507 13.2841 58.4301 13.8803 58.8412 14.524ZM62.6604 12.3192L65.7093 10.559L61.916 9.54249L62.6604 12.3192ZM59.6002 4.4488L57.8394 7.49856L60.617 8.2432L59.6002 4.4488ZM54.8427 10.8597L56.449 8.07743L50.4637 6.474V9.6875C52.0383 9.75582 53.5229 10.1712 54.8427 10.8594V10.8597ZM57.0472 7.04134L58.8078 3.99216L55.0134 5.00865L57.0472 7.04134ZM50.4634 1.75882V5.27791L53.2387 4.53413L50.4634 1.75882ZM49.5446 5.27589V1.75911L46.771 4.53269L49.5446 5.27589ZM56.763 13.3963C55.0332 11.6666 52.6434 10.5967 50.0038 10.5967C47.3643 10.5967 44.9741 11.6666 43.2444 13.3963C41.515 15.126 40.4449 17.5159 40.4449 20.1554C40.4449 22.7949 41.515 25.1851 43.2444 26.9145C44.9741 28.6442 47.364 29.7143 50.0038 29.7143C52.6431 29.7143 55.0332 28.6442 56.763 26.9145C58.4927 25.1851 59.5625 22.7952 59.5625 20.1554C59.5625 17.5161 58.4927 15.126 56.763 13.3963ZM41.3274 31.6337L38.5255 28.8319L39.1177 31.0416L41.3274 31.6337ZM38.5244 11.4795L41.3288 8.67505L39.1171 9.26747L38.5244 11.4795ZM58.6818 8.67591L61.4827 11.4763L60.8909 9.26776L58.6818 8.67591ZM61.4824 28.831L58.68 31.6334L60.89 31.0413L61.4822 28.8313L61.4824 28.831ZM35.1321 24.1389L36.7529 25.7599L35.7251 21.9249L35.1321 24.1389ZM44.3987 33.4055L46.0189 35.0259L48.2323 34.4329L44.3987 33.4058V33.4055ZM53.9882 35.0259L55.6078 33.4064L51.7765 34.4329L53.9885 35.0257L53.9882 35.0259ZM63.2577 25.7565L64.8756 24.1386L64.2837 21.9292L63.2577 25.7567V25.7565ZM64.875 16.1704L63.2594 14.5549L64.284 18.3767L64.875 16.1701V16.1704ZM55.604 6.89922L53.9874 5.28281L51.7802 5.87437L55.604 6.89922ZM46.0203 5.28309L44.4019 6.90123L48.2312 5.87523L46.0203 5.28309ZM36.7514 14.5517L35.1333 16.1699L35.7254 18.3807L36.7514 14.5517Z" fill="url(#paint0_linear_2037_351)"/>
<path d="M11.715 47.0281V53.2799H4.3185V47.0281H0V63.1072H4.3185V56.8782H11.715V63.1072H16.0335V47.0281H11.715ZM20.0784 63.1072H33.9293V59.6158H24.3966V56.5568H33.5848V53.5517H24.3966V50.5195H33.9293V47.0281H20.0784V63.1072ZM37.9742 63.1072H51.3278V59.501H42.2927V47.0281H37.9742V63.1072ZM55.2768 63.1072H59.5952V47.0281H55.2768V63.1072ZM72.2999 63.6356C77.6326 63.6356 81.2122 60.1442 81.2122 55.0678C81.2122 49.9724 77.6326 46.5003 72.2999 46.5003C66.9479 46.5003 63.3686 49.9724 63.3686 55.0678C63.3686 60.1445 66.9479 63.6356 72.2999 63.6356ZM72.2999 59.9144C69.6812 59.9144 67.656 58.0195 67.656 55.0678C67.656 52.097 69.6812 50.2212 72.2999 50.2212C74.8991 50.2212 76.9436 52.097 76.9436 55.0678C76.9436 58.0195 74.8991 59.9144 72.2999 59.9144ZM92.1711 63.6356C97.3394 63.6546 100 61.8595 100 58.5517C100 54.5281 96.0185 54.1453 92.9177 53.5904L91.1756 53.2839C89.6826 53.0351 89.0665 52.4418 89.0665 51.6188C89.0665 50.566 90.0657 49.8767 92.1137 49.8767C94.3917 49.8767 95.4443 50.7571 95.6743 52.0777H99.5408C99.5408 47.8936 96.5354 46.5 92.1901 46.5C87.5006 46.5 84.9164 48.3491 84.9164 51.4268C84.9164 55.1249 88.1512 55.7951 91.214 56.3117L93.2239 56.6565C95.0234 56.9434 95.7124 57.4986 95.7124 58.4177C95.7124 59.5085 94.5065 60.2552 92.1711 60.2359C89.6443 60.2359 88.4957 59.3555 88.4 57.9965H84.4952C84.4379 61.8975 87.0411 63.6356 92.1711 63.6356Z" fill="#2B2A29"/>
<path d="M2.43945 69.915V71.5928H1.93611V69.915L0.0957031 68.038H0.761639L2.1823 69.48L3.60873 68.038H4.26948L2.43945 69.915ZM8.76412 71.1419C8.40203 71.4668 7.91368 71.6294 7.29877 71.6294C6.68011 71.6294 6.19147 71.4677 5.83342 71.1442C5.47509 70.8208 5.29577 70.3794 5.29577 69.8204C5.29577 69.2612 5.47941 68.8244 5.8464 68.5096C6.19954 68.2058 6.68357 68.0536 7.29906 68.0536C7.91397 68.0536 8.40002 68.2058 8.75662 68.5096C9.12361 68.8244 9.30725 69.2615 9.30725 69.8204C9.30725 70.3763 9.12649 70.8165 8.7647 71.1419H8.76412ZM8.41011 68.8478C8.14777 68.6226 7.77732 68.5096 7.29848 68.5096C6.81964 68.5096 6.45093 68.6232 6.19176 68.8507C5.93317 69.0778 5.80373 69.4013 5.80373 69.8204C5.80373 70.2399 5.9349 70.5703 6.19695 70.8113C6.45929 71.0526 6.82627 71.1734 7.29819 71.1734C7.77675 71.1734 8.14748 71.0537 8.40982 70.8142C8.67187 70.5746 8.80304 70.2436 8.80304 69.8204C8.80304 69.3972 8.67187 69.0732 8.40982 68.8478H8.41011ZM13.7044 71.3094C13.4386 71.5228 13.0402 71.6294 12.5089 71.6294C11.4184 71.6294 10.8732 71.161 10.8732 70.224V68.0377H11.3765V70.224C11.3765 70.5455 11.4668 70.7845 11.6467 70.9399C11.8266 71.0952 12.1143 71.1731 12.5092 71.1731C12.9007 71.1731 13.189 71.0944 13.3744 70.937C13.5525 70.7899 13.6416 70.5576 13.6416 70.2396V68.0374H14.1449V70.2341C14.1449 70.7167 13.9979 71.0751 13.7044 71.3089V71.3094ZM18.5796 69.8573C18.8523 70.0286 18.9884 70.2872 18.9884 70.6334V71.5928H18.4851V70.6493C18.4851 70.2857 18.1985 70.1041 17.6254 70.1041H16.346V71.5931H15.8426V68.0383H17.6727C18.5848 68.0383 19.0409 68.3669 19.0409 69.0239C19.0409 69.3978 18.8872 69.676 18.5796 69.8576V69.8573ZM17.6831 68.494H16.346V69.6423H17.5992C17.8788 69.6423 18.1005 69.595 18.2651 69.501C18.4467 69.3961 18.5375 69.2422 18.5375 69.0395C18.5375 68.676 18.2527 68.4943 17.6831 68.4943V68.494ZM23.1694 68.494V69.5166H25.0989V69.9727H23.1694V71.5928H22.6712V68.038H25.4238V68.494H23.1691H23.1694ZM29.6382 71.3097C29.3724 71.5231 28.974 71.6297 28.4427 71.6297C27.3521 71.6297 26.807 71.1613 26.807 70.2243V68.038H27.3103V70.2243C27.3103 70.5458 27.4005 70.7848 27.5804 70.9401C27.7603 71.0955 28.048 71.1734 28.443 71.1734C28.8345 71.1734 29.1227 71.0947 29.3081 70.9373C29.4863 70.7902 29.5754 70.5579 29.5754 70.2399V68.0377H30.0787V70.2344C30.0787 70.717 29.9317 71.0753 29.6382 71.3091V71.3097ZM33.3545 68.494V71.5928H32.8511V68.494H31.4878V68.038H34.7126V68.494H33.3545ZM38.9532 71.3097C38.6874 71.5231 38.289 71.6297 37.7577 71.6297C36.6671 71.6297 36.122 71.1613 36.122 70.2243V68.038H36.6253V70.2243C36.6253 70.5458 36.7156 70.7848 36.8955 70.9401C37.0753 71.0955 37.3631 71.1734 37.758 71.1734C38.1495 71.1734 38.4378 71.0947 38.6231 70.9373C38.8013 70.7902 38.8904 70.5579 38.8904 70.2399V68.0377H39.3937V70.2344C39.3937 70.717 39.2467 71.0753 38.9532 71.3091V71.3097ZM43.8284 69.8576C44.1011 70.0289 44.2372 70.2875 44.2372 70.6337V71.5931H43.7338V70.6495C43.7338 70.286 43.4473 70.1044 42.8742 70.1044H41.5948V71.5934H41.0914V68.0386H42.9215C43.8336 68.0386 44.2897 68.3672 44.2897 69.0242C44.2897 69.3981 44.136 69.6763 43.8284 69.8579V69.8576ZM42.9318 68.4943H41.5948V69.6426H42.848C43.1276 69.6426 43.3493 69.5953 43.5139 69.5013C43.6955 69.3964 43.7863 69.2424 43.7863 69.0398C43.7863 68.6762 43.5015 68.4946 42.9318 68.4946V68.4943ZM45.9456 71.5931V68.0383H48.8869V68.4943H46.4434V69.5169H48.6087V69.9729H46.4434V71.137H48.9132V71.5931H45.9456ZM51.109 71.9287C51.0704 72.0198 50.9727 72.065 50.8153 72.065C50.6789 72.065 50.6106 72.0039 50.6106 71.8817C50.6106 71.8641 50.6158 71.8413 50.6264 71.8134L50.8467 71.2786C50.8853 71.1875 50.964 71.1422 51.0828 71.1422C51.1491 71.1422 51.2085 71.1589 51.2609 71.1918C51.3134 71.2253 51.3396 71.2697 51.3396 71.3253C51.3396 71.3463 51.3362 71.3674 51.3293 71.3881L51.1093 71.9281L51.109 71.9287ZM57.0203 69.9156V71.5934H56.5169V69.9156L54.6765 68.0386H55.3425L56.7631 69.4806L58.1896 68.0386H58.8503L57.0203 69.9156ZM63.345 71.1425C62.9829 71.4674 62.4945 71.63 61.8796 71.63C61.2609 71.63 60.7723 71.4683 60.4143 71.1448C60.0559 70.8214 59.8766 70.38 59.8766 69.821C59.8766 69.2618 60.0602 68.825 60.4272 68.5102C60.7804 68.2063 61.2644 68.0541 61.8799 68.0541C62.4948 68.0541 62.9809 68.2063 63.3375 68.5102C63.7044 68.825 63.8881 69.262 63.8881 69.821C63.8881 70.3768 63.7073 70.817 63.3455 71.1425H63.345ZM62.9909 68.8484C62.7286 68.6232 62.3582 68.5102 61.8793 68.5102C61.4005 68.5102 61.0318 68.6238 60.7726 68.8512C60.514 69.0784 60.3846 69.4019 60.3846 69.821C60.3846 70.2405 60.5157 70.5709 60.7778 70.8119C61.0401 71.0532 61.4071 71.1739 61.879 71.1739C62.3576 71.1739 62.7283 71.0543 62.9907 70.8147C63.2527 70.5752 63.3839 70.2442 63.3839 69.821C63.3839 69.3978 63.2527 69.0738 62.9907 68.8484H62.9909ZM68.2853 71.31C68.0195 71.5233 67.6211 71.63 67.0898 71.63C65.9992 71.63 65.454 71.1615 65.454 70.2246V68.0383H65.9574V70.2246C65.9574 70.5461 66.0476 70.785 66.2275 70.9404C66.4074 71.0958 66.6951 71.1737 67.09 71.1737C67.4815 71.1737 67.7698 71.0949 67.9552 70.9375C68.1334 70.7905 68.2224 70.5582 68.2224 70.2402V68.038H68.7258V70.2347C68.7258 70.7173 68.5788 71.0756 68.2853 71.3094V71.31ZM73.1605 69.8579C73.4332 70.0292 73.5692 70.2878 73.5692 70.634V71.5934H73.0659V70.6498C73.0659 70.2863 72.7793 70.1047 72.2062 70.1047H70.9268V71.5937H70.4235V68.0389H72.2535C73.1656 68.0389 73.6217 68.3675 73.6217 69.0245C73.6217 69.3984 73.4681 69.6766 73.1605 69.8582V69.8579ZM72.2639 68.4946H70.9268V69.6429H72.18C72.4596 69.6429 72.6813 69.5956 72.8459 69.5016C73.0276 69.3967 73.1184 69.2427 73.1184 69.0401C73.1184 68.6765 72.8335 68.4949 72.2639 68.4949V68.4946ZM78.8774 71.6303C78.4023 71.6303 78.014 71.5499 77.7133 71.389C77.3288 71.1794 77.1365 70.8508 77.1365 70.4034V70.1724H77.645V70.3875C77.645 70.9119 78.0575 71.1742 78.8823 71.1742C79.183 71.1742 79.4275 71.1321 79.6166 71.0482C79.8403 70.9537 79.9521 70.8121 79.9521 70.6236C79.9521 70.4872 79.9173 70.3875 79.8472 70.3247C79.7774 70.2618 79.6535 70.2059 79.475 70.1569C79.3701 70.1292 79.1239 70.0767 78.7356 69.9998C78.2775 69.9087 77.965 69.8233 77.7972 69.7426C77.4371 69.5714 77.2573 69.3128 77.2573 68.9668C77.2573 68.3234 77.7641 68.002 78.7777 68.002C79.8334 68.002 80.3681 68.4338 80.382 69.2972H79.8893C79.8648 68.9265 79.7567 68.6924 79.5644 68.5947C79.3932 68.5039 79.1308 68.4583 78.7777 68.4583C78.0996 68.4583 77.7606 68.6281 77.7606 68.9671C77.7606 69.128 77.8407 69.2482 78.0019 69.3289C78.1345 69.3918 78.3669 69.4512 78.699 69.5074C79.349 69.6158 79.7861 69.7325 80.0098 69.8585C80.307 70.0263 80.4555 70.2849 80.4555 70.6346C80.4555 70.9877 80.2684 71.2515 79.8945 71.4262C79.6114 71.5626 79.2724 71.6309 78.8774 71.6309V71.6303ZM84.78 69.9262C84.5214 70.0695 84.2 70.141 83.8154 70.141H82.6095V71.5937H82.1062V68.0389H83.8731C84.8166 68.0389 85.2886 68.3937 85.2886 69.1032C85.2886 69.4667 85.1191 69.7415 84.78 69.9265V69.9262ZM83.9045 68.4946H82.6093V69.685H83.9097C84.1611 69.685 84.3658 69.6362 84.5232 69.5385C84.6944 69.4336 84.78 69.29 84.78 69.1084C84.78 68.6996 84.488 68.4949 83.9045 68.4949V68.4946ZM89.8071 71.5934L89.2986 70.5449H87.5473L87.0284 71.5934H86.4619L88.2446 68.0386H88.6381L90.3578 71.5934H89.8071ZM88.4386 68.7777L87.7779 70.0886H89.0783L88.4386 68.7777ZM94.9233 69.0398C94.7697 68.8302 94.5955 68.6806 94.4018 68.5918C94.2078 68.5027 93.9656 68.4577 93.6753 68.4577C93.2034 68.4577 92.8304 68.5811 92.5562 68.8273C92.2818 69.0738 92.1445 69.405 92.1445 69.821C92.1445 70.2336 92.2748 70.5619 92.5352 70.8067C92.7955 71.0514 93.1564 71.1739 93.6177 71.1739C93.8938 71.1739 94.1308 71.1284 94.3283 71.0376C94.5258 70.9465 94.71 70.7963 94.8812 70.5867L95.3113 70.8436C94.8778 71.368 94.315 71.6303 93.6229 71.6303C93.0218 71.6303 92.5412 71.4686 92.1812 71.1451C91.8211 70.8217 91.6412 70.3875 91.6412 69.8424C91.6412 69.2796 91.8263 68.8319 92.197 68.5001C92.5677 68.168 93.0604 68.002 93.6753 68.002C94.3955 68.002 94.9533 68.2623 95.3482 68.7832L94.9233 69.0401V69.0398ZM96.9306 71.5934V68.0386H99.872V68.4946H97.4285V69.5172H99.5938V69.9732H97.4285V71.1373H99.8982V71.5934H96.9306Z" fill="#2B2A29"/>
</g>
<defs>
<linearGradient id="paint0_linear_2037_351" x1="24.6559" y1="39.5811" x2="73.8795" y2="3.19275" gradientUnits="userSpaceOnUse">
<stop stop-color="#E53A24"/>
<stop offset="0.121569" stop-color="#EA5E20"/>
<stop offset="0.180392" stop-color="#EA5E20"/>
<stop offset="0.290196" stop-color="#F18917"/>
<stop offset="0.360784" stop-color="#F9B101"/>
<stop offset="0.521569" stop-color="#E53A24"/>
<stop offset="0.611765" stop-color="#F9B101"/>
<stop offset="0.74902" stop-color="#F18917"/>
<stop offset="0.870588" stop-color="#E53A24"/>
<stop offset="0.909804" stop-color="#EA5E20"/>
<stop offset="1" stop-color="#EA5E20"/>
</linearGradient>
<clipPath id="clip0_2037_351">
<rect width="100" height="72.0645" fill="white"/>
</clipPath>
</defs>
</svg>
