<svg width="40" height="41" viewBox="0 0 40 41" fill="none" xmlns="http://www.w3.org/2000/svg">
<g clip-path="url(#clip0_2193_373)">
<path d="M21.62 32.2325H17.7691C17.1259 32.2325 16.6026 31.7093 16.6026 31.0661V22.3801H14.3559C13.7127 22.3801 13.1895 21.8567 13.1895 21.2137V17.4917C13.1895 16.8485 13.7127 16.3253 14.3559 16.3253H16.6026V14.4615C16.6026 12.6134 17.1829 11.0412 18.2806 9.91488C19.3832 8.78346 20.9241 8.18555 22.7367 8.18555L25.6736 8.19032C26.3157 8.19142 26.8381 8.71466 26.8381 9.35678V12.8125C26.8381 13.4557 26.315 13.979 25.672 13.979L23.6946 13.9797C23.0915 13.9797 22.938 14.1006 22.9051 14.1377C22.851 14.1991 22.7866 14.3729 22.7866 14.8526V16.3251H25.5234C25.7294 16.3251 25.929 16.3759 26.1005 16.4717C26.4706 16.6785 26.7006 17.0694 26.7006 17.4919L26.6992 21.2139C26.6992 21.8567 26.1759 22.38 25.5327 22.38H22.7866V31.0661C22.7866 31.7093 22.2632 32.2325 21.62 32.2325ZM18.0123 30.8228H21.3767V21.749C21.3767 21.3195 21.7262 20.9702 22.1555 20.9702H25.2894L25.2907 17.735H22.1553C21.726 17.735 21.3767 17.3857 21.3767 16.9562V14.8526C21.3767 14.3019 21.4327 13.6755 21.8484 13.2047C22.3507 12.6356 23.1424 12.57 23.6942 12.57L25.4283 12.5692V9.59969L22.7356 9.59528C19.8226 9.59528 18.0123 11.46 18.0123 14.4615V16.9562C18.0123 17.3855 17.663 17.735 17.2337 17.735H14.5992V20.9702H17.2337C17.663 20.9702 18.0123 21.3195 18.0123 21.749V30.8228Z" fill="#F7F7F7"/>
</g>
<defs>
<clipPath id="clip0_2193_373">
<rect width="24" height="24.047" fill="white" transform="translate(8 8.23242)"/>
</clipPath>
</defs>
</svg>
