<svg width="40" height="41" viewBox="0 0 40 41" fill="none" xmlns="http://www.w3.org/2000/svg">
<rect x="0.5" y="0.732422" width="39" height="39" rx="3.5" stroke="#222222"/>
<g clip-path="url(#clip0_2180_728)">
<path d="M25.5034 8.23242H14.4966C10.9143 8.23242 8 11.1467 8 14.729V25.736C8 29.3181 10.9143 32.2324 14.4966 32.2324H25.5036C29.0857 32.2324 32 29.3181 32 25.736V14.729C32 11.1467 29.0857 8.23242 25.5034 8.23242ZM30.593 25.736C30.593 28.5423 28.3098 30.8254 25.5034 30.8254H14.4966C11.6901 30.8254 9.40698 28.5423 9.40698 25.736V14.729C9.40698 11.9225 11.6901 9.6394 14.4966 9.6394H25.5036C28.3098 9.6394 30.593 11.9225 30.593 14.729V25.736Z" fill="#F7F7F7"/>
<path d="M19.9998 13.6699C16.3813 13.6699 13.4375 16.6137 13.4375 20.2322C13.4375 23.8507 16.3813 26.7945 19.9998 26.7945C23.6183 26.7945 26.5621 23.8507 26.5621 20.2322C26.5621 16.6137 23.6183 13.6699 19.9998 13.6699ZM19.9998 25.3876C17.1573 25.3876 14.8445 23.0749 14.8445 20.2322C14.8445 17.3897 17.1573 15.0769 19.9998 15.0769C22.8425 15.0769 25.1551 17.3897 25.1551 20.2322C25.1551 23.0749 22.8425 25.3876 19.9998 25.3876Z" fill="#F7F7F7"/>
<path d="M26.7194 11.3398C25.65 11.3398 24.7803 12.2098 24.7803 13.2789C24.7803 14.3483 25.65 15.2182 26.7194 15.2182C27.7887 15.2182 28.6586 14.3483 28.6586 13.2789C28.6586 12.2096 27.7887 11.3398 26.7194 11.3398ZM26.7194 13.811C26.426 13.811 26.1873 13.5723 26.1873 13.2789C26.1873 12.9854 26.426 12.7468 26.7194 12.7468C27.0129 12.7468 27.2516 12.9854 27.2516 13.2789C27.2516 13.5723 27.0129 13.811 26.7194 13.811Z" fill="#F7F7F7"/>
</g>
<defs>
<clipPath id="clip0_2180_728">
<rect width="24" height="24" fill="white" transform="translate(8 8.23242)"/>
</clipPath>
</defs>
</svg>
