<svg width="12" height="11" viewBox="0 0 12 11" fill="none" xmlns="http://www.w3.org/2000/svg">
<path d="M7.64399 3.23438C7.24837 1.39687 6.40462 0.234375 5.62424 0.234375C4.84387 0.234375 4.00012 1.39687 3.60449 3.23438H7.64399Z" fill="#a8a8a8"/>
<path d="M3.375 5.48438C3.37491 5.98605 3.40836 6.48717 3.47513 6.98438H7.77488C7.84164 6.48717 7.87509 5.98605 7.875 5.48438C7.87509 4.9827 7.84164 4.48158 7.77488 3.98438H3.47513C3.40836 4.48158 3.37491 4.9827 3.375 5.48438Z" fill="#a8a8a8"/>
<path d="M3.60449 7.73438C4.00012 9.57188 4.84387 10.7344 5.62424 10.7344C6.40462 10.7344 7.24837 9.57188 7.64399 7.73438H3.60449Z" fill="#a8a8a8"/>
<path d="M8.41232 3.23475H10.7748C10.4198 2.42691 9.88049 1.7135 9.20002 1.15175C8.51955 0.589998 7.7169 0.195535 6.85645 0C7.56782 0.625875 8.12582 1.78313 8.41232 3.23475Z" fill="#a8a8a8"/>
<path d="M11.0441 3.98438H8.53162C8.59349 4.48198 8.62442 4.98294 8.62425 5.48438C8.6243 5.98582 8.59324 6.48678 8.53125 6.98438H11.0437C11.3172 6.00307 11.3176 4.96568 11.0441 3.98438Z" fill="#a8a8a8"/>
<path d="M6.85645 10.9691C7.71703 10.7737 8.51983 10.3793 9.20044 9.81752C9.88105 9.25576 10.4205 8.5423 10.7756 7.73438H8.41307C8.12582 9.186 7.56782 10.3432 6.85645 10.9691Z" fill="#a8a8a8"/>
<path d="M2.83711 7.73438H0.474609C0.829656 8.5423 1.36912 9.25576 2.04973 9.81752C2.73034 10.3793 3.53315 10.7737 4.39373 10.9691C3.68161 10.3432 3.12361 9.186 2.83711 7.73438Z" fill="#a8a8a8"/>
<path d="M4.39276 0C3.53217 0.195429 2.72937 0.589844 2.04876 1.1516C1.36815 1.71336 0.82868 2.42682 0.473633 3.23475H2.83613C3.12338 1.78313 3.68138 0.625875 4.39276 0Z" fill="#a8a8a8"/>
<path d="M2.62461 5.48438C2.62456 4.98293 2.65562 4.48197 2.71761 3.98438H0.205107C-0.0683689 4.96568 -0.0683689 6.00307 0.205107 6.98438H2.71761C2.65562 6.48678 2.62456 5.98582 2.62461 5.48438Z" fill="#a8a8a8"/>
</svg>
